<?xml version="1.0" encoding="UTF-8"?>
<level>
  <owner>Fistachka</owner>
  <repo>cheburashka2</repo>
  <version>v1.0.11</version>
  <next number="1" owner="Fistachka" repo="cheburashka2"/>
  <readme>
    <ru>08a43a5acd8209b7df468a4608591d7506f7441cb11e6b8bf8fd9a488773868b</ru>
    <en>02f81b4735e2ddb1c67fad2218776ecd4325ec8277c9fe4a2dcda451285af7fd</en>
  </readme>
  <license>b1b99f5538d1fd3702219bff50c665196dfa42f6ee755c37fe41a6178d6bc6e5</license>
  <exercise number="1">
    <scale>minor</scale>
    <bpm>96</bpm>
    <lowestNote>18</lowestNote>
    <tonalities>10</tonalities>
    <video name="13t.mp4" size="911106" type="video/mp4" volume="0.5">3f065274f7a6d70e5c351107dd1fc623d810d89019524e7006e8a0591aef8974</video>
    <notes>
      <note number="1" values="58" ticks="67" durationTicks="49" ppq="96" velocity="0.843"/>
      <note number="2" values="68" ticks="117" durationTicks="46" ppq="96" velocity="0.906"/>
      <note number="3" values="58" ticks="163" durationTicks="48" ppq="96" velocity="0.843"/>
      <note number="4" values="38" ticks="212" durationTicks="48" ppq="96" velocity="0.906"/>
      <note number="5" values="18" ticks="259" durationTicks="50" ppq="96" velocity="0.906"/>
      <note number="6" values="38" ticks="308" durationTicks="66" ppq="96" velocity="0.906"/>
      <note number="7" values="28" ticks="356" durationTicks="91" ppq="96" velocity="0.906"/>
    </notes>
  </exercise>
  <exercise number="2">
    <scale>minor</scale>
    <bpm>96</bpm>
    <lowestNote>18</lowestNote>
    <tonalities>10</tonalities>
    <video name="14t.mp4" size="1052071" type="video/mp4" volume="0.5">63b0737d33edb0099d30cc46bd006031ec0e1181bf4ad5b1bb9e8d2a6d268af1</video>
    <notes>
      <note number="1" values="48" ticks="62" durationTicks="49" ppq="96" velocity="0.843"/>
      <note number="2" values="58" ticks="113" durationTicks="46" ppq="96" velocity="0.906"/>
      <note number="3" values="48" ticks="160" durationTicks="48" ppq="96" velocity="0.843"/>
      <note number="4" values="28" ticks="208" durationTicks="48" ppq="96" velocity="0.906"/>
      <note number="5" values="48" ticks="256" durationTicks="48" ppq="96" velocity="0.906"/>
      <note number="6" values="68" ticks="305" durationTicks="48" ppq="96" velocity="0.906"/>
      <note number="7" values="58" ticks="352" durationTicks="103" ppq="96" velocity="0.906"/>
    </notes>
  </exercise>
  <exercise number="3">
    <scale>minor</scale>
    <bpm>96</bpm>
    <lowestNote>18</lowestNote>
    <tonalities>10</tonalities>
    <video name="15t.mp4" size="982390" type="video/mp4" volume="0.5">6591b06732d6b0374096e5fda2b305a8d3f0d75c79ee491fa269fcf58f26a6fd</video>
    <notes>
      <note number="1" values="78" ticks="29" durationTicks="49" ppq="96" velocity="0.843"/>
      <note number="2" values="188" ticks="79" durationTicks="46" ppq="96" velocity="0.906"/>
      <note number="3" values="78" ticks="125" durationTicks="48" ppq="96" velocity="0.843"/>
      <note number="4" values="58" ticks="174" durationTicks="48" ppq="96" velocity="0.906"/>
      <note number="5" values="38" ticks="222" durationTicks="48" ppq="96" velocity="0.906"/>
      <note number="6" values="58" ticks="272" durationTicks="57" ppq="96" velocity="0.906"/>
      <note number="7" values="48" ticks="319" durationTicks="103" ppq="96" velocity="0.906"/>
    </notes>
  </exercise>
  <exercise number="4">
    <scale>minor</scale>
    <bpm>96</bpm>
    <lowestNote>18</lowestNote>
    <tonalities>10</tonalities>
    <video name="16t.mp4" size="899856" type="video/mp4" volume="0.5">cfa919f0b197cb8a93172afdc2e5abc112a2da83db4d2d716bfeba8a7f6b5f33</video>
    <notes>
      <note number="1" values="48" ticks="31" durationTicks="49" ppq="96" velocity="0.843"/>
      <note number="2" values="58" ticks="81" durationTicks="46" ppq="96" velocity="0.906"/>
      <note number="3" values="48" ticks="127" durationTicks="48" ppq="96" velocity="0.843"/>
      <note number="4" values="58" ticks="176" durationTicks="48" ppq="96" velocity="0.906"/>
      <note number="5" values="68" ticks="224" durationTicks="48" ppq="96" velocity="0.906"/>
      <note number="6" values="78" ticks="274" durationTicks="90" ppq="96" velocity="0.906"/>
    </notes>
  </exercise>
  <exercise number="5">
    <scale>minor</scale>
    <bpm>96</bpm>
    <lowestNote>18</lowestNote>
    <tonalities>10</tonalities>
    <video name="17t.mp4" size="1010611" type="video/mp4" volume="0.5">d39aa699d551efff8e177acf154c9ddc4d8c07459dd6ab7bd1fb1e88e1c2419a</video>
    <notes>
      <note number="1" values="58" ticks="63" durationTicks="49" ppq="96" velocity="0.843"/>
      <note number="2" values="188" ticks="112" durationTicks="36" ppq="96" velocity="0.906"/>
      <note number="3" values="188" ticks="160" durationTicks="48" ppq="96" velocity="0.843"/>
      <note number="4" values="58" ticks="207" durationTicks="49" ppq="96" velocity="0.906"/>
      <note number="5" values="78" ticks="256" durationTicks="49" ppq="96" velocity="0.906"/>
      <note number="6" values="68" ticks="303" durationTicks="39" ppq="96" velocity="0.906"/>
      <note number="7" values="68" ticks="352" durationTicks="103" ppq="96" velocity="0.906"/>
    </notes>
  </exercise>
  <exercise number="6">
    <scale>minor</scale>
    <bpm>96</bpm>
    <lowestNote>18</lowestNote>
    <tonalities>10</tonalities>
    <video name="18t.mp4" size="949262" type="video/mp4" volume="0.5">e5a93d14717f989eff3fd80a3398fc17c51c2c2abbf12a97fe178cbd446f685a</video>
    <notes>
      <note number="1" values="48" ticks="33" durationTicks="49" ppq="96" velocity="0.843"/>
      <note number="2" values="78" ticks="83" durationTicks="38" ppq="96" velocity="0.906"/>
      <note number="3" values="78" ticks="129" durationTicks="48" ppq="96" velocity="0.843"/>
      <note number="4" values="48" ticks="178" durationTicks="48" ppq="96" velocity="0.906"/>
      <note number="5" values="68" ticks="226" durationTicks="48" ppq="96" velocity="0.906"/>
      <note number="6" values="58" ticks="275" durationTicks="28" ppq="96" velocity="0.906"/>
      <note number="7" values="58" ticks="321" durationTicks="103" ppq="96" velocity="0.906"/>
    </notes>
  </exercise>
  <exercise number="7">
    <scale>minor</scale>
    <bpm>96</bpm>
    <lowestNote>18</lowestNote>
    <tonalities>10</tonalities>
    <video name="19t.mp4" size="793196" type="video/mp4" volume="0.5">00a0afc500c9d2f1809e25a6c1cfe97efc0520ece3444edd664d1ee4407464e0</video>
    <notes>
      <note number="1" values="78" ticks="39" durationTicks="49" ppq="96" velocity="0.843"/>
      <note number="2" values="68" ticks="89" durationTicks="46" ppq="96" velocity="0.906"/>
      <note number="3" values="48" ticks="135" durationTicks="48" ppq="96" velocity="0.843"/>
      <note number="4" values="58" ticks="263" durationTicks="48" ppq="96" velocity="0.906"/>
      <note number="5" values="38" ticks="312" durationTicks="48" ppq="96" velocity="0.906"/>
    </notes>
  </exercise>
  <exercise number="8">
    <scale>minor</scale>
    <bpm>96</bpm>
    <lowestNote>18</lowestNote>
    <tonalities>10</tonalities>
    <video name="20t.mp4" size="629796" type="video/mp4" volume="0.5">4b627a909063c248196a0b34f0be7efd4d12db16469bbb28d92ebb5e0f83310d</video>
    <notes>
      <note number="1" values="58" ticks="96" durationTicks="49" ppq="96" velocity="0.843"/>
      <note number="2" values="48" ticks="144" durationTicks="46" ppq="96" velocity="0.906"/>
      <note number="3" values="28" ticks="194" durationTicks="48" ppq="96" velocity="0.843"/>
      <note number="4" values="38" ticks="240" durationTicks="48" ppq="96" velocity="0.906"/>
      <note number="5" values="18" ticks="289" durationTicks="47" ppq="96" velocity="0.906"/>
    </notes>
  </exercise>
</level>
